<?xml version="1.0" standalone="no"?>
<!DOCTYPE svg PUBLIC "-//W3C//DTD SVG 20010904//EN"
 "http://www.w3.org/TR/2001/REC-SVG-20010904/DTD/svg10.dtd">
<svg version="1.0" xmlns="http://www.w3.org/2000/svg"
 width="387.000000pt" height="733.000000pt" viewBox="0 0 387.000000 733.000000"
 preserveAspectRatio="xMidYMid meet">
<metadata>
Created by potrace 1.16, written by Peter Selinger 2001-2019
</metadata>
<g transform="translate(0.000000,733.000000) scale(0.100000,-0.100000)"
fill="#000000" stroke="none">
<path d="M1683 7026 c-97 -46 -136 -127 -188 -391 -61 -312 -78 -508 -94
-1090 -12 -439 1 -777 45 -1180 7 -60 -19 -162 -136 -554 -85 -279 -118 -384
-194 -594 -25 -71 -46 -145 -46 -166 0 -65 68 -113 128 -90 13 5 21 6 19 1
-41 -69 -217 -354 -269 -435 -38 -60 -98 -166 -133 -235 -36 -70 -80 -149 -98
-177 -26 -41 -32 -60 -32 -107 0 -49 4 -61 30 -88 73 -77 198 -59 220 32 4 17
1 39 -8 57 -14 29 -13 33 54 166 38 75 128 231 200 348 250 403 392 627 399
627 3 0 16 -89 29 -197 32 -281 76 -604 116 -859 20 -120 49 -311 65 -424 17
-113 35 -230 40 -260 5 -30 19 -121 29 -201 22 -166 42 -242 74 -291 32 -46
68 -62 111 -48 73 24 86 68 52 171 -13 40 -31 128 -40 194 -24 181 -91 633
-130 875 -44 271 -77 514 -116 845 -16 143 -34 296 -40 339 -17 135 -18 132
73 278 46 73 104 167 128 208 l44 75 5 -115 c5 -92 10 -124 29 -162 28 -60 70
-90 130 -95 70 -7 106 22 158 127 45 90 120 336 149 488 l18 90 44 -49 c72
-81 170 -121 239 -99 100 32 168 154 217 388 14 67 26 125 26 128 0 2 20 -7
45 -22 31 -18 61 -26 96 -27 46 -2 53 1 81 32 26 29 29 40 25 73 -7 49 -29 75
-77 88 -38 10 -57 33 -113 131 -41 73 -100 101 -161 75 -44 -18 -70 -66 -63
-113 12 -70 -104 -553 -133 -553 -29 0 -96 153 -136 315 -20 80 -26 135 -31
275 -3 98 -10 178 -16 181 -6 4 -2 32 11 75 32 110 34 129 18 168 -16 37 -67
76 -101 76 -41 0 -97 -22 -130 -52 -73 -64 -111 -181 -195 -598 l-52 -255 -90
-170 c-103 -194 -280 -497 -287 -490 -2 3 -19 127 -36 276 l-32 271 19 91 c29
143 125 725 147 897 27 205 56 505 81 830 11 146 27 348 36 450 19 211 15 310
-14 366 -51 100 -135 128 -239 80z m53 -445 c-9 -97 -23 -268 -31 -381 -33
-440 -85 -937 -105 -1005 -6 -20 -8 18 -5 110 3 77 7 241 10 365 8 289 21 502
40 654 19 146 60 361 82 436 15 48 18 51 21 26 2 -15 -4 -107 -12 -205z m589
-2243 c-23 -161 -91 -463 -94 -418 -1 23 27 251 44 355 14 81 52 191 63 181 2
-3 -4 -55 -13 -118z m-792 -710 l16 -143 -37 -60 c-20 -33 -70 -112 -110 -175
-65 -99 -76 -112 -83 -93 -5 15 4 50 31 119 31 79 150 467 150 489 0 3 4 5 8
5 5 0 16 -64 25 -142z"/>
</g>
</svg>
