<?xml version="1.0" encoding="UTF-8"?>
<svg id="Layer_2" data-name="Layer 2" xmlns="http://www.w3.org/2000/svg" viewBox="0 0 48.64 47.32">
  <defs>
    <style>
      .cls-1 {
        fill: #1168b1;
        stroke-width: 0px;
      }
    </style>
  </defs>
  <g id="Layer_1-2" data-name="Layer 1">
    <g>
      <path class="cls-1" d="M14.31,29.26c.04-.27.08-.55.12-.82.1-.78.14-1.55.13-2.34,0-.03.01-.07-.02-.08-.04-.02-.06.02-.09.05-.41.41-.84.81-1.27,1.2-.08.07-.08.15-.08.25.05.74.07,1.49.05,2.23-.03,1.23-.18,2.44-.42,3.64-.2,1-.46,1.97-.79,2.93,0,.02-.01.05-.02.07-.01.03-.02.06-.05.07,0-.03-.01-.06,0-.09.08-.57.09-1.14.09-1.71,0-1.84-.39-3.6-1.09-5.29,0-.02-.02-.03-.02-.05-.03-.07-.06-.1-.13-.04-.04.03-.08.06-.12.08-.68.46-1.39.89-2.16,1.19-.64.25-1.3.39-1.98.32-.62-.06-1.15-.31-1.51-.84-.12-.18-.2-.38-.24-.59-.01-.07-.01-.13,0-.2.04-.11.08-.14.19-.1.39.13.77.1,1.16.02.65-.14,1.25-.41,1.83-.72.6-.31,1.18-.67,1.74-1.05.13-.09.13-.09.04-.22-.82-1.23-1.81-2.3-2.95-3.23-1.39-1.14-2.94-2.04-4.58-2.76-.65-.29-1.32-.55-1.99-.78-.02,0-.05-.01-.07-.02-.03-.01-.07,0-.07-.05,0-.04.04-.04.06-.05.16-.06.31-.12.47-.17,1.58-.56,3.16-1.11,4.75-1.67,1.12-.39,2.24-.79,3.36-1.18.02,0,.03-.01.05-.02.11-.05.11-.05.05-.16-.14-.22-.28-.45-.43-.67-.79-1.2-1.65-2.34-2.59-3.42-.02-.02-.03-.04-.05-.06-.03-.04-.02-.07.03-.07.18,0,.37,0,.55,0,.08,0,.12.06.16.11.47.47.91.97,1.33,1.48,1.25,1.54,2.3,3.21,3.16,4.99.79,1.64,1.38,3.35,1.78,5.13.03.12.05.24.07.36.02.1.03.1.12.04.08-.06.15-.12.23-.18.39-.32.77-.65,1.16-.97.09-.08.11-.15.09-.27-.29-1.94-.88-3.79-1.72-5.56-.27-.56-.56-1.11-.88-1.64-.02-.03-.04-.06-.06-.09-.04-.06-.04-.1.04-.12.14-.04.28-.09.42-.14.48-.16.96-.32,1.43-.48.17-.06.17-.06.26.09.5.79.89,1.64,1.19,2.53.31.91.53,1.84.65,2.8.06.45.09.89.11,1.34,0,.04,0,.07,0,.11,0,.03.03.04.05.02.03-.02.05-.04.07-.06.31-.28.63-.57.95-.85.07-.06.1-.13.11-.22.1-.73.14-1.46.07-2.19-.14-1.5-.65-2.87-1.54-4.09-.14-.19-.14-.19.08-.26,1.42-.49,2.83-.98,4.25-1.48.03-.01.06-.02.09-.03.03-.01.07-.04.1,0,.01.02,0,.06-.01.09-.24.66-.47,1.32-.71,1.98-.45,1.27-.91,2.53-1.36,3.8-.22.61-.44,1.23-.66,1.84-.01.03-.02.06-.03.09,0,.03-.03.07,0,.09.03.02.05,0,.08-.03.02-.02.05-.04.07-.06.76-.7,1.52-1.42,2.27-2.14.78-.76,1.55-1.53,2.32-2.29.07-.06.12-.14.18-.2.02-.03.05-.06.09-.03.03.03,0,.05-.02.08-.17.36-.39.7-.61,1.03-.73,1.11-1.54,2.18-2.37,3.23-.8,1.01-1.63,1.99-2.48,2.95-.33.37-.67.74-1.01,1.1-.08.08-.12.16-.13.27-.21,1.4-.6,2.75-1.16,4.05-.04.09-.07.18-.14.25,0,0-.02-.02-.03-.02ZM17.24,21.15h0s0-.01,0-.01h0Z"/>
      <path class="cls-1" d="M27.48,27.5c0,.92,0,1.83,0,2.75,0,.04,0,.07,0,.11,0,.14,0,.14-.15.14-.36,0-.73,0-1.09,0-.15,0-.15,0-.15-.16,0-.84,0-1.68,0-2.53,0-.28.02-.24-.25-.24-.97,0-1.93,0-2.9,0-.04,0-.09,0-.13,0-.09,0-.12.03-.12.12,0,.14,0,.28,0,.42,0,.71,0,1.43,0,2.14,0,.05,0,.1,0,.15,0,.07-.03.1-.1.1-.39,0-.79,0-1.18,0-.08,0-.11-.04-.1-.11,0-.05,0-.1,0-.15,0-1.54,0-3.09,0-4.63,0-.09,0-.18-.01-.28-.02-.23-.15-.37-.37-.43-.17-.04-.34-.07-.51-.09-.09,0-.17-.02-.26-.02-.07,0-.11-.03-.11-.11,0-.08.04-.11.11-.11.37-.03.74-.06,1.1-.08.4-.03.8-.06,1.19-.1.04,0,.09,0,.13,0,.07,0,.1.02.1.09,0,.04,0,.09,0,.13,0,.77,0,1.54,0,2.31,0,.05,0,.1,0,.15,0,.06.02.09.08.09.04,0,.07,0,.11,0,1,0,2,0,3.01,0,.03,0,.06,0,.09,0,.07,0,.1-.02.1-.1,0-.04,0-.09,0-.13,0-.73,0-1.46,0-2.19,0-.04,0-.07,0-.11,0-.13,0-.14.13-.14.37,0,.75,0,1.12,0,.13,0,.13,0,.13.14,0,.59,0,1.18,0,1.77,0,.37,0,.74,0,1.11Z"/>
      <path class="cls-1" d="M38.23,28.65c-.47,0-.95,0-1.42,0-.11,0-.17.04-.22.14-.26.53-.53,1.05-.8,1.58-.05.1-.11.15-.23.14-.17,0-.34,0-.52,0-.1,0-.11-.01-.06-.1.22-.43.44-.85.65-1.28.58-1.14,1.17-2.27,1.75-3.41.08-.15.14-.3.2-.45.1-.24.03-.39-.22-.47-.18-.06-.37-.07-.56-.08-.11,0-.13-.04-.13-.13,0-.05.02-.08.08-.08.04,0,.07,0,.11,0,.67,0,1.34,0,2.01,0,.13,0,.19.04.25.16.55,1.1,1.11,2.2,1.67,3.3.38.75.76,1.5,1.14,2.25.03.06.06.12.09.18.06.12.06.13-.08.13-.34,0-.69,0-1.03,0-.1,0-.15-.03-.2-.12-.26-.53-.53-1.05-.79-1.58-.06-.12-.13-.15-.25-.15-.48,0-.96,0-1.44,0ZM38.25,28.21c.41,0,.82,0,1.24,0,.14,0,.14,0,.07-.13-.11-.2-.22-.4-.33-.6-.31-.56-.61-1.12-.92-1.68-.03-.05-.04-.12-.09-.12-.07,0-.08.08-.11.13-.13.24-.25.49-.38.74-.26.51-.53,1.03-.79,1.54-.06.12-.06.12.07.12.41,0,.82,0,1.24,0Z"/>
      <path class="cls-1" d="M31.12,30.6c-.48,0-1.17-.09-1.86-.21-.07-.01-.12-.03-.12-.11,0-.18,0-.37,0-.55,0-.08.04-.08.1-.05.09.04.18.07.28.1.62.22,1.26.37,1.92.39.35.01.7-.02,1.03-.15.37-.15.59-.41.62-.81.02-.26-.08-.47-.26-.64-.13-.13-.28-.22-.44-.31-.42-.23-.88-.38-1.33-.55-.44-.17-.87-.33-1.27-.58-.24-.15-.45-.33-.6-.56-.28-.44-.23-1.02.11-1.41.24-.27.55-.43.88-.54.45-.15.92-.21,1.4-.22.71-.02,1.42.04,2.13.14.1.01.14.05.13.15,0,.12,0,.23,0,.35q0,.18-.17.13c-.24-.07-.48-.14-.73-.19-.51-.1-1.02-.18-1.54-.15-.26.02-.51.08-.72.25-.36.29-.38.78-.06,1.1.14.15.32.25.5.34.42.22.86.36,1.3.52.37.14.73.28,1.08.47.2.11.39.24.55.4.64.6.47,1.53-.05,1.98-.36.31-.79.47-1.24.57-.48.1-.96.14-1.66.14Z"/>
      <path class="cls-1" d="M35.94,5.45c.04-.35,0-.82.08-1.29,0-.02,0-.07,0-.07-.04,0-.05.03-.06.05-.08.14-.16.29-.25.43-.29.49-.58.98-.87,1.48,0,.01-.01.02-.02.03-.1.15-.1.15-.26.06-.09-.05-.18-.1-.27-.16-.1-.07-.11-.08-.05-.19.15-.26.3-.52.46-.78.42-.71.85-1.43,1.27-2.14.02-.04.05-.07.07-.11.03-.06.08-.08.14-.04.14.08.29.17.43.25.07.04.05.12.05.18-.02.42-.04.85-.06,1.27-.02.38-.02.76-.09,1.14,0,.03-.03.08.01.1.04.02.06-.04.07-.07.28-.48.56-.97.85-1.45.07-.13.15-.26.23-.38.07-.11.09-.11.21-.05.1.06.2.12.3.18.08.05.1.1.05.18-.07.12-.14.24-.22.36-.51.87-1.03,1.73-1.54,2.6-.1.17-.1.16-.27.07-.32-.18-.32-.18-.31-.55.01-.33.03-.66.05-1.12ZM36.51,5.72s0-.01-.01-.02c0,0-.01,0-.01.01,0,0,0,0,0,.01,0,0,0,0,.01-.01Z"/>
      <path class="cls-1" d="M17.66,42.19c.15.05.3.1.45.15.07.02.08.08.09.15.08.46.15.92.23,1.38.06.36.14.72.14,1.1,0,.02,0,.05.01.05.03,0,.04-.02.05-.04.12-.36.23-.73.35-1.09.11-.32.21-.64.32-.96.05-.16.06-.16.23-.11.09.03.19.06.28.09.13.05.14.06.1.2-.13.39-.25.77-.38,1.16-.22.66-.44,1.33-.66,1.99-.01.04-.03.08-.04.12-.03.08-.08.11-.16.07-.01,0-.02,0-.04-.01-.47-.16-.36-.05-.45-.51-.12-.68-.24-1.37-.35-2.05-.02-.1-.02-.2-.03-.29,0-.01,0-.03,0-.03-.02,0-.03,0-.04.03-.02.05-.03.09-.05.14-.21.65-.43,1.3-.64,1.94-.01.04-.03.08-.04.12-.02.07-.07.1-.14.07-.13-.04-.26-.08-.39-.13-.07-.02-.09-.07-.07-.15,0-.03.02-.06.03-.09.35-1.06.7-2.11,1.05-3.17,0-.02.02-.05.02-.07.02-.06.06-.09.13-.07Z"/>
      <path class="cls-1" d="M46.74,22.8c.58.02,1.15.04,1.73.06.16,0,.17.02.17.17,0,.13-.01.26-.02.39-.01.19-.01.19-.21.18-.26,0-.53-.01-.79-.02-.15,0-.29,0-.44-.01-.06,0-.09.02-.09.08,0,.28-.02.57-.03.85,0,.09.05.1.12.1.37.01.74.03,1.11.04.3,0,.3,0,.29.31,0,.09,0,.18-.01.28-.01.17-.02.17-.19.17-.33,0-.66-.02-.99-.03-.77-.03-1.55-.05-2.32-.08-.29,0-.28-.01-.27-.28,0-.1,0-.2.01-.29,0-.18.02-.19.19-.18.43.01.86.03,1.29.04.17,0,.17,0,.18-.16,0-.25.01-.49.02-.74,0-.1-.03-.13-.12-.13-.45-.01-.91-.03-1.36-.05-.15,0-.15-.02-.15-.16,0-.14,0-.28.01-.42,0-.14.02-.16.17-.15.53.01,1.06.03,1.58.05.04,0,.09,0,.13,0,0,0,0,0,0,0Z"/>
      <path class="cls-1" d="M9.34,12.15c-.06,0-.1-.04-.14-.08-.47-.38-.94-.75-1.41-1.13-.39-.31-.79-.63-1.18-.94-.04-.03-.09-.07-.13-.11-.05-.04-.05-.1-.01-.15.11-.14.22-.28.33-.42.07-.08.13-.04.19.01.25.2.51.41.76.61.08.06.16.12.23.18.05.04.09.04.13-.01.18-.23.36-.45.54-.68.04-.05.01-.09-.03-.12-.12-.1-.24-.19-.36-.29-.21-.17-.42-.33-.62-.49-.12-.1-.12-.11-.03-.24.09-.11.18-.22.27-.33.09-.11.11-.11.22-.02.29.23.58.46.87.69.6.48,1.2.96,1.8,1.44.02.02.05.04.07.06.07.06.05.12,0,.17-.1.12-.2.25-.3.37-.08.1-.1.1-.2.02-.24-.19-.47-.37-.71-.56-.12-.1-.25-.2-.37-.3-.07-.06-.12-.05-.18.02-.16.2-.32.4-.48.61-.08.1-.08.11.03.19.33.26.65.52.98.78.02.02.05.04.07.06.11.09.11.12.03.23-.09.12-.18.23-.28.35-.03.03-.05.07-.1.08Z"/>
      <path class="cls-1" d="M21.75.34c.14-.02.16.05.17.12.05.25.11.49.16.74.18.87.36,1.74.53,2.62.04.19.03.19-.15.24-.13.03-.26.06-.4.08-.13.02-.15.02-.18-.12-.08-.39-.16-.78-.25-1.17-.07-.33,0-.3-.36-.23-.2.04-.4.09-.6.12-.09.02-.12.05-.1.15.09.41.17.83.26,1.24q.05.24-.2.3c-.11.02-.22.05-.32.07-.15.03-.17.02-.2-.13-.1-.48-.2-.95-.29-1.43-.13-.63-.26-1.26-.39-1.89,0-.04-.01-.07-.02-.11,0-.06.01-.11.08-.12.17-.04.35-.07.52-.11.1-.02.12.05.14.13.07.34.14.67.21,1.01.08.39.02.33.4.26.19-.04.37-.08.56-.11.09-.02.12-.05.1-.15-.09-.39-.16-.78-.24-1.17-.04-.19-.04-.19.15-.23.15-.03.3-.06.41-.08Z"/>
      <path class="cls-1" d="M46.26,32.13c-.39-.03-.73-.14-.99-.45-.1-.12-.16-.26-.18-.42-.02-.17-.06-.14-.18-.13-.47.08-.95.15-1.42.23-.01,0-.02,0-.04,0-.18.03-.2.01-.19-.16,0-.13.03-.27.03-.4,0-.11.06-.15.16-.16.28-.03.56-.07.84-.1.24-.03.49-.05.73-.08.05,0,.11,0,.15-.06.09-.13.07-.2-.08-.26-.35-.13-.7-.26-1.06-.38-.05-.02-.09-.04-.14-.05-.07-.02-.1-.08-.07-.14.06-.16.12-.32.18-.48.03-.08.08-.1.16-.07.1.04.2.07.3.1.97.35,1.94.71,2.91,1.06.04.01.08.03.12.04.07.03.09.07.07.14-.15.39-.26.79-.44,1.17-.11.24-.27.44-.53.54-.1.04-.21.06-.33.06ZM46.25,31.38c.17,0,.27-.07.34-.17.08-.12.12-.25.17-.39.02-.07-.02-.09-.07-.1-.26-.1-.53-.19-.79-.29-.08-.03-.11,0-.14.07-.04.11-.08.22-.09.34-.02.13.02.25.11.34.14.13.31.19.46.21Z"/>
      <path class="cls-1" d="M46.69,28.93c-.55-.02-1.15-.14-1.69-.45-.33-.19-.57-.47-.64-.86-.13-.74.34-1.4,1.09-1.51.46-.07.91-.01,1.35.1.28.07.56.16.81.31.33.2.59.46.67.86.14.72-.29,1.37-1.01,1.51-.17.03-.34.04-.58.04ZM45.71,26.85c-.14,0-.28.01-.42.05-.18.05-.31.16-.34.35-.04.19.06.32.19.43.12.1.26.17.4.22.42.15.85.23,1.29.27.18.01.37,0,.55-.06.35-.12.42-.49.14-.74-.1-.09-.21-.15-.33-.2-.48-.2-.98-.29-1.49-.31Z"/>
      <path class="cls-1" d="M35.89,42.3c0,.22-.06.38-.16.54-.08.12-.07.12.04.2.39.26.79.53,1.18.79.2.13.2.14.03.3-.08.07-.15.14-.23.21-.11.1-.15.11-.27.02-.21-.14-.41-.3-.61-.45-.21-.16-.42-.31-.64-.47-.04-.03-.08-.07-.15-.05-.16.05-.18.09-.1.25.18.34.35.69.53,1.03.09.17.08.18-.09.27-.12.06-.24.13-.36.18-.11.05-.13.04-.19-.06-.11-.22-.23-.44-.34-.65-.4-.79-.8-1.58-1.2-2.36-.09-.17-.09-.17.09-.26.29-.15.58-.3.87-.44.21-.1.44-.17.68-.15.16,0,.32.06.44.16.3.25.46.58.48.94ZM34.72,41.84c-.18.01-.31.1-.46.17-.08.04-.08.08-.04.15.13.24.25.48.37.72.04.08.09.09.16.04.07-.05.15-.08.22-.13.14-.1.24-.23.2-.42-.05-.22-.13-.41-.35-.51-.03-.01-.07-.01-.09-.02Z"/>
      <path class="cls-1" d="M30.36,43.81c0-.2.02-.39.09-.58.27-.74,1.25-1.03,1.89-.55.14.11.27.24.36.39.36.55.56,1.16.6,1.82.01.17,0,.34-.05.51-.14.53-.52.8-1.04.89-.38.07-.72-.04-1-.31-.22-.21-.38-.46-.5-.74-.2-.45-.33-.92-.35-1.42ZM32.56,45.1c-.06-.63-.23-1.21-.57-1.75-.06-.09-.13-.16-.22-.23-.24-.17-.53-.08-.63.2-.04.11-.06.23-.05.34.06.6.23,1.17.54,1.68.06.11.14.2.25.27.26.17.56.05.64-.25.02-.09.04-.18.04-.28Z"/>
      <path class="cls-1" d="M45.27,19.58c-.44,0-.77-.19-.96-.59-.15-.31-.23-.63-.23-.98,0-.39.18-.68.52-.87.16-.09.33-.16.51-.2.76-.19,1.51-.38,2.27-.58.18-.05.19-.04.24.14.03.12.06.25.09.38.03.15.03.16-.13.2-.52.13-1.04.26-1.55.4-.26.07-.52.13-.79.2-.09.03-.19.06-.28.1-.04.02-.08.04-.11.07-.22.18-.18.4-.11.63.07.23.22.36.43.37.13,0,.26-.02.38-.05.76-.19,1.51-.38,2.27-.58.04,0,.07-.02.11-.03.07-.01.11.01.12.08.04.17.09.34.13.52.02.09-.03.12-.1.14-.31.08-.62.16-.93.24-.54.13-1.07.29-1.61.4-.1.02-.19.02-.29.03Z"/>
      <path class="cls-1" d="M20.39,45.57c.02-.52.1-1.04.33-1.52.3-.64.85-.91,1.54-.77.28.06.54.17.77.34.13.1.13.13.05.26-.05.08-.11.16-.17.24-.08.1-.09.11-.19.03-.11-.08-.22-.16-.35-.21-.4-.17-.71-.07-.91.31-.14.27-.2.57-.25.86-.04.25-.07.5-.05.75,0,.08.02.16.04.24.1.35.48.56.83.45.05-.02.08-.05.09-.1.03-.2.06-.4.09-.6.01-.06-.02-.09-.08-.1-.1-.02-.21-.03-.31-.05-.08-.01-.12-.05-.1-.14.02-.11.04-.22.05-.33.01-.09.06-.13.15-.12.3.04.6.08.89.13.14.02.14.04.12.19-.06.39-.12.79-.18,1.18,0,.04-.02.07-.02.11,0,.2-.11.3-.29.35-.47.13-.94.11-1.38-.1-.29-.14-.48-.38-.58-.68-.08-.23-.11-.48-.11-.73Z"/>
      <path class="cls-1" d="M46.51,13.79s.08.03.11.1c.06.15.13.3.2.46.06.14.05.15-.06.25-.33.28-.66.56-.98.83-.57.48-1.14.97-1.72,1.45-.19.16-.19.15-.29-.06-.05-.12-.11-.25-.16-.37-.06-.15-.06-.15.07-.26.19-.15.38-.3.56-.45.12-.09.12-.1.06-.23-.09-.2-.18-.4-.26-.61-.04-.1-.1-.12-.2-.1-.23.05-.47.08-.71.12-.16.03-.17.02-.24-.13-.06-.14-.13-.28-.18-.42-.05-.12-.03-.15.1-.16.35-.04.71-.08,1.06-.12.84-.09,1.67-.19,2.51-.28.03,0,.06,0,.12-.01ZM44.79,15.28s.04-.03.07-.04c.11-.08.23-.17.34-.25.25-.19.5-.37.77-.53.03-.02.07-.03.05-.06-.01-.02-.06,0-.08,0-.16.05-.32.09-.48.11-.29.04-.58.09-.87.14-.08.01-.09.04-.06.11.07.16.14.33.21.49,0,.02.02.05.06.05Z"/>
      <path class="cls-1" d="M11.65,4.64s.02-.09.07-.13c.14-.09.27-.19.41-.28.12-.08.14-.08.26.01.34.27.67.53,1.01.8.59.47,1.18.93,1.76,1.4.19.15.19.16,0,.29-.11.08-.22.15-.33.23-.14.09-.14.09-.27-.02-.18-.15-.37-.31-.55-.46-.12-.1-.12-.1-.23-.02-.18.12-.36.26-.55.38-.09.06-.1.12-.06.21.09.22.17.45.26.67.06.16.06.16-.08.26-.12.09-.25.18-.38.26-.11.07-.14.06-.18-.07-.11-.34-.21-.68-.32-1.02-.26-.8-.51-1.6-.77-2.4,0-.03-.02-.06-.04-.12ZM13.46,6.03s-.03-.04-.06-.06c-.1-.09-.21-.19-.32-.28-.23-.21-.46-.42-.67-.65-.02-.02-.05-.06-.07-.04-.02.02,0,.06.02.08.08.15.15.3.2.45.1.28.21.55.31.83.03.07.06.08.12.04.14-.1.29-.2.44-.31.02-.01.04-.03.04-.07Z"/>
      <path class="cls-1" d="M25.17,43.56c.07,0,.15,0,.22,0,.14,0,.15,0,.2.14.08.23.15.46.22.68.29.89.57,1.78.86,2.67.06.2.05.22-.16.22-.14,0-.28,0-.42,0-.14,0-.15,0-.19-.15-.07-.24-.14-.47-.2-.71-.03-.1-.07-.14-.18-.14-.22.01-.44.01-.66.01-.1,0-.14.04-.16.14-.05.23-.11.47-.16.7-.04.16-.04.16-.21.17-.15,0-.31,0-.46,0-.11,0-.13-.03-.1-.14.06-.23.13-.45.19-.67.27-.92.53-1.84.8-2.76.05-.17.05-.17.23-.17.07,0,.14,0,.2,0h0ZM25.14,45.8c.07,0,.15,0,.22,0,.13,0,.14,0,.1-.14-.12-.45-.24-.9-.31-1.36,0-.02-.01-.04-.02-.07,0,.02-.02.05-.02.07-.05.4-.15.78-.24,1.17q-.08.34.27.33Z"/>
      <path class="cls-1" d="M41.74,9.02s-.03.07-.05.09c-.08.08-.16.17-.25.24-.08.08-.12.07-.2-.01-.17-.18-.35-.37-.52-.55-.1-.1-.1-.1-.2-.01-.2.19-.39.37-.59.56-.06.06-.07.1,0,.17.23.24.46.48.69.72.11.12.11.13,0,.25-.07.07-.14.13-.21.2-.07.06-.12.07-.19,0-.1-.11-.2-.22-.3-.32-.29-.31-.59-.61-.88-.92-.13-.14-.13-.15,0-.28.81-.77,1.63-1.54,2.44-2.31.02-.02.03-.04.05-.05.1-.09.12-.09.21,0,.22.22.43.45.65.68.19.2.37.39.56.59.12.12.11.14-.04.23-.08.04-.15.08-.23.12-.15.07-.17.07-.29-.05-.19-.2-.37-.39-.56-.59-.12-.12-.12-.12-.24,0-.15.14-.29.28-.44.42-.07.06-.06.1,0,.17.18.18.35.36.52.55.03.04.07.07.09.12Z"/>
      <path class="cls-1" d="M33.96,5.23c-.05.14-.1.29-.18.43-.02.03-.05.04-.08.03-.03,0-.06-.02-.09-.03-.52-.21-1.04-.42-1.55-.63-.18-.07-.18-.09-.11-.26.42-1.04.85-2.08,1.27-3.12,0-.02.01-.03.02-.05.06-.12.07-.13.2-.08.24.09.48.19.72.29.31.13.61.25.92.38.14.06.14.08.05.2-.06.08-.12.16-.18.23-.1.12-.11.12-.25.06-.26-.1-.51-.21-.77-.31-.16-.06-.16-.06-.22.09-.08.19-.15.38-.23.56-.04.09-.02.13.07.17.23.09.46.18.68.28.16.07.16.08.1.25-.03.07-.05.14-.08.21-.07.16-.08.17-.24.1-.22-.09-.43-.18-.65-.26-.15-.06-.15-.06-.21.09-.1.24-.2.48-.29.72-.05.12-.05.12.07.17.31.13.61.25.92.38.06.02.12.04.12.13Z"/>
      <path class="cls-1" d="M12.79,8.28c.06.09,0,.15-.06.2-.24.22-.48.44-.71.67-.17.16-.34.32-.51.48-.14.13-.15.13-.28-.01-.61-.65-1.22-1.3-1.83-1.95-.17-.18-.35-.37-.52-.55-.09-.1-.09-.12,0-.21.42-.4.85-.8,1.28-1.2.12-.11.14-.11.22.03.04.07.08.15.12.23.08.16.08.18-.05.3-.21.19-.41.39-.62.58-.07.06-.09.1-.01.18.16.16.31.32.46.48.06.07.11.06.17,0,.18-.18.36-.35.55-.52.12-.11.13-.11.24,0,.06.07.13.13.19.2.1.11.1.12,0,.23-.15.15-.31.3-.47.44q-.18.17-.01.35c.15.16.3.32.46.48.11.12.11.12.24,0,.23-.21.46-.43.69-.64.12-.12.13-.11.25,0,.08.08.14.17.23.23,0,0,0,0,0,0Z"/>
      <path class="cls-1" d="M25.95,3.96c-.35-.01-.69-.09-1-.24-.04-.02-.08-.04-.11-.06-.05-.03-.06-.07-.04-.13.05-.11.08-.23.13-.34.04-.1.07-.11.17-.06.16.07.31.14.48.18.13.03.25.04.38.04.19,0,.34-.07.41-.25.07-.18.08-.37-.05-.54-.07-.09-.17-.16-.27-.21-.14-.07-.28-.15-.43-.22-.15-.07-.29-.16-.42-.26-.18-.15-.29-.33-.31-.56-.04-.4.03-.76.35-1.04C25.48.06,25.78,0,26.08,0c.31,0,.61.08.89.21.05.02.1.05.14.09.06.04.08.09.04.16-.06.11-.12.23-.18.34-.04.07-.08.08-.15.04-.11-.06-.22-.11-.33-.16-.16-.06-.32-.08-.49-.07-.2.02-.33.12-.37.28-.05.19,0,.34.16.46.12.09.25.16.38.23.18.09.36.19.52.31.66.48.53,1.34.17,1.72-.25.26-.56.36-.91.36Z"/>
      <path class="cls-1" d="M42.97,10.21c0,.15.04.29.06.44.04.24.09.48.06.73-.07.49-.36.8-.81.95-.45.15-.84.03-1.16-.31-.29-.31-.46-.68-.54-1.09-.04-.17-.02-.18.14-.24.09-.03.18-.06.26-.08.12-.03.14-.02.16.1.05.2.1.41.21.59.04.07.09.15.14.22.11.14.26.24.45.18.2-.06.37-.17.41-.4.02-.12.01-.24-.01-.37-.04-.2-.08-.4-.11-.6-.12-.67.26-1.2.93-1.29.36-.05.66.1.91.35.29.3.47.66.54,1.07.03.18.02.19-.17.23-.08.02-.17.03-.25.05-.15.03-.15.02-.18-.12-.03-.13-.05-.26-.1-.39-.06-.15-.14-.27-.25-.38-.13-.12-.27-.17-.44-.09-.16.07-.25.2-.24.38,0,.02,0,.05,0,.07Z"/>
      <path class="cls-1" d="M28.7,43.27c.51,0,.82.24.93.74.09.37.07.73-.17,1.05-.19.25-.45.37-.74.45-.08.02-.16.03-.24.04-.12.02-.13.03-.11.16.04.28.09.56.13.84.02.12.04.24.06.36.01.12,0,.13-.12.16-.14.03-.28.05-.42.07-.15.02-.17,0-.19-.14-.07-.45-.14-.9-.21-1.35-.11-.67-.21-1.33-.32-2-.02-.13-.01-.17.08-.18.43-.06.86-.16,1.29-.19.01,0,.02,0,.04,0ZM28.95,44.44c0-.09-.02-.21-.06-.32-.07-.17-.2-.26-.39-.25-.1,0-.21.03-.31.04-.08,0-.11.04-.09.13.04.22.07.45.11.67q.05.32.37.23s.02,0,.03-.01c.23-.08.34-.23.34-.49Z"/>
      <path class="cls-1" d="M37.81,39.69c.01.11-.04.15-.09.19-.21.14-.41.29-.62.44-.05.03-.09.07-.13.1-.05.03-.05.06-.02.11.14.19.28.39.42.59.04.07.08.05.13.01.17-.13.35-.25.53-.37.04-.03.08-.06.12-.09.11-.07.12-.07.2.03.06.08.12.17.18.26.07.11.07.12-.03.19-.17.13-.35.25-.53.38q-.21.15-.06.35c.12.17.24.34.36.51.1.14.1.14.24.05.24-.17.47-.33.71-.5q.19-.14.33.05c.04.05.08.11.12.17.09.13.09.14-.03.22-.46.33-.93.66-1.4.99-.11.08-.13.07-.22-.05-.51-.72-1.02-1.43-1.53-2.15-.15-.21-.29-.41-.44-.62-.09-.13-.08-.15.04-.24.46-.32.91-.65,1.37-.97.02-.01.04-.03.06-.04.09-.05.12-.05.15.05.05.13.1.27.13.36Z"/>
      <path class="cls-1" d="M12.7,43.68c-.35,0-.61-.11-.84-.29-.24-.18-.44-.39-.6-.64-.1-.16-.1-.17.05-.28.06-.05.12-.09.17-.14.14-.1.15-.1.24.04.11.17.24.33.39.46.06.05.12.1.19.14.16.1.33.12.48,0,.16-.13.27-.29.23-.51-.02-.1-.06-.2-.12-.29-.1-.16-.2-.33-.29-.49-.03-.05-.06-.11-.09-.16-.27-.56-.05-1.19.52-1.45.34-.15.66-.09.98.07.32.17.57.42.77.72.02.04.04.08.06.11.03.07.02.13-.05.17-.1.05-.19.11-.29.17-.12.07-.13.07-.2-.05-.09-.16-.19-.3-.32-.42-.09-.08-.18-.15-.3-.18-.15-.05-.29-.04-.41.08-.11.11-.15.25-.1.4.05.15.12.28.2.41.14.24.29.47.35.75.16.68-.4,1.38-1.03,1.38Z"/>
      <path class="cls-1" d="M43.47,37.91s-.05-.01-.07-.02c-.45-.13-.92-.22-1.36-.39-.01,0-.02,0-.03-.01-.02,0-.05-.02-.07,0-.02.02,0,.05.01.07.12.19.22.4.31.61.1.23.21.46.31.69.08.17.07.17-.08.29-.1.08-.2.16-.31.24-.11.08-.13.07-.19-.05-.13-.31-.25-.61-.38-.92-.14-.35-.29-.69-.43-1.04-.03-.08-.08-.14-.14-.19-.3-.25-.6-.51-.9-.76-.04-.03-.07-.06-.11-.1-.04-.04-.05-.09-.01-.13.12-.14.24-.28.36-.42.05-.06.11-.05.16,0,.13.11.25.21.38.32.2.17.41.34.6.51.08.07.16.1.26.13.64.14,1.28.29,1.92.44.05.01.11.02.16.04.06.02.1.06.06.13-.1.18-.21.36-.32.54-.03.05-.07.06-.13.05Z"/>
      <path class="cls-1" d="M37.31,7.51c0-.21.05-.42.14-.61.29-.62.71-1.13,1.28-1.52.24-.16.5-.27.79-.26.42,0,.75.19,1,.5.12.15.21.32.26.51.05.18.02.22-.15.27-.09.03-.18.05-.26.08-.07.02-.12,0-.14-.08-.02-.06-.03-.13-.05-.2-.06-.18-.17-.31-.35-.39-.13-.06-.26-.06-.39-.01-.16.06-.29.16-.41.28-.33.33-.62.69-.85,1.09-.05.09-.09.18-.11.27-.08.29.01.52.28.67.12.07.26.1.4.13.13.03.14.05.12.18-.01.09-.03.17-.05.25-.03.14-.05.16-.2.15-.16,0-.3-.05-.44-.12-.33-.17-.6-.4-.77-.74-.07-.15-.1-.3-.1-.46Z"/>
      <path class="cls-1" d="M27.61,2.7c0-.45.08-.88.23-1.3.09-.25.21-.47.38-.67.39-.45.95-.49,1.38-.34.19.07.36.18.51.32.14.13.14.18.02.32-.06.06-.12.13-.17.19-.06.06-.11.07-.17,0-.05-.05-.1-.1-.15-.14-.33-.28-.72-.2-.93.17-.08.14-.12.3-.16.45-.08.35-.13.7-.15,1.06,0,.13,0,.26.03.39.07.38.36.58.74.5.08-.02.16-.05.25-.07.14-.04.16-.03.21.1.03.09.06.17.1.26.03.09,0,.15-.08.2-.12.06-.24.1-.37.12-.33.04-.65,0-.95-.14-.35-.16-.55-.45-.64-.81-.05-.2-.06-.4-.06-.6Z"/>
      <path class="cls-1" d="M41.95,33.68s.08.05.13.08c.45.29.9.59,1.36.89.31.2.63.41.94.61.12.08.13.08.21-.05.1-.14.19-.29.28-.43.07-.11.08-.11.19-.04.11.07.22.14.32.21.11.08.12.09.04.2-.19.3-.39.6-.58.89-.19.3-.39.6-.58.89-.02.04-.05.07-.07.11-.04.05-.09.07-.14.01-.11-.12-.22-.24-.32-.36-.06-.07-.03-.14.01-.2.09-.14.18-.28.27-.42.07-.11.07-.11-.04-.18-.49-.32-.99-.65-1.48-.97-.28-.18-.57-.37-.85-.55-.15-.1-.15-.12-.06-.26.07-.12.15-.24.23-.36.03-.04.05-.09.13-.08Z"/>
      <path class="cls-1" d="M48.14,19.66c.21-.01.22-.01.24.16.06.53.11,1.06.17,1.6.02.18.04.37.06.55.02.16,0,.18-.17.16-.11-.01-.22-.03-.33-.05-.16-.03-.17-.03-.19-.2-.02-.16-.03-.32-.05-.48-.02-.13-.02-.13-.15-.12-.35.04-.71.08-1.06.12-.57.06-1.15.12-1.72.18-.16.02-.16,0-.18-.15-.01-.13-.03-.27-.04-.4-.02-.16,0-.17.14-.19.81-.09,1.63-.17,2.44-.26.12-.01.24-.02.37-.04.11-.01.12-.03.11-.14-.02-.16-.04-.33-.06-.49-.02-.18,0-.19.17-.21.1-.01.21-.02.26-.03Z"/>
      <path class="cls-1" d="M18.62,1.5s0,.06,0,.09c0,.14,0,.15-.13.2-.15.06-.3.11-.45.17-.13.05-.13.05-.09.18.17.48.35.96.53,1.44.14.39.29.78.43,1.18.06.16.05.17-.1.23-.12.05-.24.09-.36.13-.17.06-.18.05-.24-.11-.15-.4-.29-.8-.44-1.19-.17-.47-.34-.93-.51-1.4-.05-.14-.06-.14-.2-.09-.16.06-.32.12-.48.18-.12.04-.13.04-.18-.08-.05-.12-.09-.24-.14-.36-.04-.13-.04-.14.09-.19.27-.1.54-.2.81-.3.4-.15.8-.29,1.19-.44.04-.01.08-.03.12-.04.07-.02.11,0,.12.08.01.11.02.22.03.33,0,0,0,0,0,0Z"/>
      <path class="cls-1" d="M17.59,5.35c0,.09-.05.12-.12.15-.39.2-.79.4-1.18.6-.11.06-.22.11-.33.17-.16.08-.18.07-.26-.08-.28-.56-.57-1.12-.85-1.68-.23-.45-.45-.9-.68-1.35-.09-.17-.09-.18.08-.26.11-.06.23-.12.34-.18.14-.07.16-.06.23.07.4.8.81,1.6,1.21,2.4.11.22.11.22.32.12.3-.15.6-.3.91-.45.16-.08.18-.07.22.11.03.13.06.26.09.39Z"/>
      <path class="cls-1" d="M29.92,4.26s.02-.06.03-.09c.08-.31.05-.33.37-.24.12.03.12.03.16-.11.18-.65.37-1.3.55-1.95.03-.12.07-.24.1-.35.04-.15.04-.15-.1-.19-.25-.08-.28-.02-.18-.35q.07-.24.32-.17c.37.11.74.21,1.12.32.16.04.16.05.12.2-.02.08-.05.17-.07.25-.02.07-.07.1-.14.07-.01,0-.02,0-.04,0q-.26-.06-.33.2c-.2.73-.41,1.45-.61,2.18-.04.14-.04.14.1.19q.26.08.18.34s0,.01,0,.02c-.07.23-.07.23-.3.17-.38-.11-.76-.21-1.13-.32-.07-.02-.15-.04-.13-.15Z"/>
      <path class="cls-1" d="M43.08,32.77s-.07.02-.08.05c-.03.05-.05.11-.09.16-.06.11-.08.12-.2.06-.08-.04-.15-.08-.23-.11-.09-.04-.09-.1-.05-.18.2-.39.4-.78.6-1.16.06-.11.08-.11.19-.06.08.04.16.08.25.12.08.04.09.09.05.17-.03.05-.05.11-.08.16-.04.07-.03.11.05.14.14.07.27.14.41.21.59.3,1.17.6,1.76.89.14.07.15.07.22-.07.11-.22.11-.23.34-.11.29.15.25.13.13.37-.17.33-.34.67-.51,1-.08.16-.1.16-.25.09-.05-.03-.11-.06-.16-.09-.13-.07-.14-.09-.07-.23q.1-.22-.11-.33c-.67-.34-1.35-.69-2.02-1.03-.04-.02-.09-.04-.12-.06Z"/>
      <path class="cls-1" d="M15.59,41.82s-.02-.03-.03-.04c-.02-.02-.05-.04-.08-.05-.24-.11-.25-.11-.11-.38.01-.03.03-.06.04-.08.06-.11.08-.12.19-.07.39.19.77.38,1.16.57.1.05.11.08.06.19,0,.01,0,.02-.02.03-.05.09-.07.21-.16.26-.1.05-.18-.05-.27-.09-.09-.04-.12,0-.15.07-.24.5-.49.99-.74,1.49-.11.22-.22.44-.33.66-.06.12-.06.13.05.18.27.13.27.11.12.39-.01.02-.02.04-.03.07-.07.13-.09.14-.23.07-.36-.18-.73-.36-1.09-.54-.14-.07-.15-.09-.09-.23.03-.07.06-.13.1-.2.06-.11.08-.12.21-.06.23.1.23.1.35-.13.33-.67.66-1.33.99-2,.02-.04.04-.08.05-.12Z"/>
      <path class="cls-1" d="M40.62,39.17c0,.53-.41.93-.94.93-.53,0-.94-.41-.94-.93,0-.52.42-.94.93-.94.53,0,.94.41.94.95Z"/>
      <path class="cls-1" d="M14.34,29.28s0,.08-.03.07c-.04-.01-.02-.06,0-.09.01,0,.02.01.03.02Z"/>
    </g>
  </g>
</svg>