<?xml version="1.0" encoding="utf-8"?>
<!-- Generator: Adobe Illustrator 27.5.0, SVG Export Plug-In . SVG Version: 6.00 Build 0)  -->
<svg version="1.1" id="Layer_3" xmlns="http://www.w3.org/2000/svg" xmlns:xlink="http://www.w3.org/1999/xlink" x="0px" y="0px"
	 viewBox="0 0 67.7 60.1" style="enable-background:new 0 0 67.7 60.1;" xml:space="preserve">
<g>
	<path d="M29.2,56c-0.6,0-0.9-0.2-1.1-0.6c-0.1-0.4,0-0.9,0.4-1.1c0.5-0.3,1-0.5,1.6-0.4c0.4,0.1,0.7,0,1-0.1c1.6-0.5,3.2-1.3,4.8-2
		c0.9-0.4,1.8-0.8,2.7-1.2c0.5-0.2,1-0.5,1.6-0.6c0.3,0,0.6-0.2,0.8-0.3c4.3-2,8.7-3.8,13.1-5.4c2.7-1,5.5-1.9,8.3-2.4
		c0.9-0.2,1.8-0.3,2.6-0.4c0.5-0.1,0.9,0.2,1,0.7c0.1,0.4-0.2,0.8-0.7,0.9c-0.6,0.1-1.1,0.2-1.7,0.3c-2.4,0.3-4.7,1-7,1.8
		c-2.8,0.9-5.4,2-8.1,3.1c-2.6,1-5.2,2.2-7.7,3.4c-0.3,0.1-0.5,0.2-0.8,0.3s-0.6,0.2-0.8,0.3c-1.7,0.8-3.3,1.5-5,2.2
		c-1.3,0.5-2.6,1.1-4,1.4C29.8,55.9,29.5,56,29.2,56L29.2,56z"/>
	<path d="M53.7,52.1c0-0.3,0.1-0.7,0.1-1c0-0.2,0.1-0.5,0.3-0.6c0.3-0.3,0.7-0.4,1.1-0.2c0.4,0.2,0.8,0.5,1,0.9
		c0.2,0.5,0.1,0.9-0.4,1.1c-0.3,0.1-0.5,0.3-0.6,0.6c-0.3,0.5-0.9,0.6-1.3,0.2C53.8,52.8,53.7,52.6,53.7,52.1z"/>
	<path d="M50.4,52.9c0,0.3-0.1,0.6-0.2,0.8c-0.2,0.3-0.6,0.5-1,0.4c-0.4-0.1-0.6-0.3-0.6-0.8c0-0.3,0-0.6,0.1-0.9
		c0.2-0.4,0.7-0.7,1-0.6C50.2,52,50.5,52.4,50.4,52.9L50.4,52.9z"/>
	<path d="M65.2,32c-0.2-0.1-0.5-0.2-0.8-0.3c-1.2-0.3-2.3-0.4-3.5-0.5c-1.4-0.1-2.6,0.5-3.6,1.5c-0.2,0.2-0.4,0.4-0.5,0.6
		c-0.6,0.7-1.2,1.4-1.7,2.2c-0.2,0.3-0.4,0.5-0.8,0.5c-1,0-2,0-3.1,0h0c0.2-0.3,0.3-0.5,0.5-0.7c0.3-0.4,0.5-0.8,0.6-1.3
		c0.2-0.8-0.2-1.5-1-1.8c-0.4-0.1-0.8-0.1-1.1,0c-0.7,0.2-1.4,0.5-2,1c-0.6,0.5-1.3,1-1.9,1.5C46,35,45.8,35,45.4,34.9
		c-0.5-0.2-1-0.3-1.5-0.5c-2.3-0.8-4.8-1.1-7.1-1.7c-1-0.2-2-0.4-3-0.6c-0.4-0.1-0.4-0.1-0.3-0.5c0.2-0.9,0.3-1.9,0.5-2.9
		c0.2-1.8,0.3-3.6,0.1-5.5c-0.1-0.6-0.2-1.3-0.2-1.9c0-0.5,0-0.5,0.4-0.6c0.7-0.2,1.5-0.3,2.2-0.5c2-0.5,4.1-0.8,6.2-0.9
		c1.9-0.2,3.8-0.2,5.8,0c0.7,0,1.3,0.2,1.9,0.5c0.2,0.1,0.4,0.2,0.6,0.3c0.5,0.4,0.5,0.8,0.1,1.3c-0.5,0.6-1.1,1.2-1.7,1.7
		c-1.2,1-2.6,1.8-4,2.5c-0.3,0.2-0.6,0.3-0.9,0.5c-0.3,0.3-0.3,0.6-0.1,1c0.3,0.4,0.6,0.5,1.1,0.3c1.4-0.6,2.8-1.3,4-2.2
		c0.9-0.6,1.7-1.3,2.5-2.1c0.4-0.5,0.8-1,1-1.6c0.2-0.6,0.2-1.1-0.1-1.7c-0.1-0.2-0.3-0.5-0.5-0.7c-0.7-0.8-1.7-1.2-2.7-1.4
		c-1.7-0.4-3.3-0.4-5-0.3c-1.1,0.1-2.1,0.2-3.2,0.3c-1.2,0.2-2.4,0.3-3.6,0.5c-2.8,0.6-5.6,1.3-8.4,2c-2.5,0.7-5,1.4-7.4,2.3
		c-2.2,0.8-4.1,1.9-6.1,3c-0.8,0.4-1.4,1-2,1.7c-0.4,0.5-0.7,1-0.7,1.5c-0.1,0.9,0.4,1.6,1.1,2.1c1,0.7,2.1,1.1,3.3,1.3
		c1.2,0.2,2.4,0.3,3.6,0.4c1.9,0.2,3.8,0.4,5.6,0.5c1.5,0.1,2.9,0.2,4.3,0.4c0.5,0,0.5,0.1,0.4,0.5c0,0.1-0.1,0.2-0.1,0.3
		c-0.8,2-1.9,3.8-3.5,5.2c-0.3,0.2-0.6,0.5-0.9,0.6c-0.4,0.2-0.7,0.4-1.2,0.4c-0.4,0-0.5-0.1-0.4-0.5c0-0.2,0.1-0.3,0.1-0.5
		c0.2-0.6,0.3-1.1,0.5-1.7c0.1-0.5,0.1-0.5-0.3-0.8c-0.3-0.2-0.7-0.4-0.7-0.9c0-0.1-0.1-0.2-0.2-0.3c-0.2-0.4-0.5-0.5-0.9-0.4
		c-0.3,0.1-0.5,0.2-0.8,0.3c-1.7,1-3.4,2.1-4.7,3.6c-0.8,0.8-1.3,1.8-1.6,2.9c-0.2,0.9,0.4,1.7,1.5,1.6c0.4-0.1,0.9-0.2,1.2-0.4
		c1.3-0.6,2.5-1.4,3.6-2.3c0.3-0.2,0.3-0.3,0.5,0.1c0.5,0.7,1.2,1.1,2.1,1.1c0.6,0,1.1-0.1,1.7-0.4c0.7-0.4,1.3-0.8,1.8-1.4
		c1.2-1.2,2.1-2.6,2.9-4c0.2-0.4,0.3-0.4,0.5,0c1.3,1.6,3,2.8,5.1,3.2c0.6,0.1,1.2,0.1,1.8-0.1c0.1,0,0.3-0.1,0.4-0.1
		c0.6,0,0.9-0.3,1.2-0.7c0.1-0.2,0.3-0.2,0.5-0.1c0.1,0.1,0.2,0.2,0.3,0.2c0.9,0.6,1.8,1,2.9,0.8c0.8-0.1,1.5-0.3,2.2-0.6
		c0.6-0.2,1.1-0.6,1.6-0.9c0.2-0.1,0.3-0.2,0.5-0.1c0.8,0.5,1.6,1,2.2,1.7c0.2,0.3,0.4,0.6,0.4,1c0,0.6-0.2,1.1-0.6,1.5
		c-0.5,0.5-1.1,0.7-1.7,1c-1.2,0.5-2.4,0.9-3.7,1.2c-2.2,0.6-4.5,1-6.7,1.4c-1.6,0.3-3.3,0.6-4.9,0.8c-1.6,0.2-3.2,0.4-4.8,0.6
		c-2.2,0.3-4.5,0.5-6.7,0.7c-2,0.2-4,0.3-6.1,0.4c-2.9,0.2-5.9,0.3-8.8,0.4c-1.7,0-3.4,0.1-5.1,0.2c-0.3,0-0.5,0-0.8,0.1
		c-0.2,0-0.4,0.2-0.5,0.4c-0.3,0.5,0,1,0.6,1.2c0.4,0.1,0.8,0.1,1.2,0.1c1.8,0,3.5-0.1,5.2-0.1c1.1,0,2.2,0,3.3-0.1
		c1.5-0.1,2.9-0.2,4.3-0.3c1-0.1,1.9-0.1,2.9-0.2c1.6-0.1,3.1-0.2,4.7-0.4c1.6-0.1,3.1-0.3,4.7-0.4c1-0.1,2-0.2,3-0.4
		c1.3-0.2,2.7-0.4,4-0.5c1.8-0.2,3.6-0.7,5.4-1c1.9-0.3,3.9-0.8,5.8-1.3c1.3-0.3,2.7-0.8,3.9-1.3c0.8-0.4,1.5-0.8,2.2-1.4
		c0.8-0.9,1.2-1.9,0.9-3.1c-0.2-0.7-0.6-1.3-1.1-1.9c-0.2-0.1-0.3-0.2-0.4-0.4c0.1-0.1,0.3-0.1,0.4-0.1c0.9,0,1.8,0,2.7-0.2
		c0.4,0,0.8-0.1,1.2-0.3c0.6-0.2,0.8-0.5,0.8-1.1c0-0.2,0-0.3,0-0.5c0.2,0.2,0.5,0.4,0.7,0.6c0.4,0.4,0.9,0.5,1.5,0.5
		c2.3-0.2,4.3-1.1,6.1-2.6c0.2-0.2,0.4-0.3,0.5-0.5C66.1,33.2,65.9,32.4,65.2,32z M31,22.1c-0.1,1-0.2,1.8-0.3,2.7c-0.2,2-0.2,4,0,6
		c0,0.3,0.2,0.7,0,0.9c-0.2,0.2-0.6,0-0.8,0c-1.8-0.1-3.5-0.3-5.3-0.4c-1.2-0.1-2.3-0.2-3.5-0.3c-1.6-0.1-3.1-0.3-4.7-0.7
		c-0.4-0.1-0.9-0.3-1.2-0.5c-0.6-0.4-0.7-0.8-0.2-1.4c0.5-0.5,1.1-0.9,1.7-1.3c2.6-1.6,5.4-2.8,8.4-3.7c1.8-0.5,3.5-1.1,5.4-1.5
		c0.1,0,0.1,0,0.2,0C31,21.7,31,21.7,31,22.1L31,22.1z M22.8,38.9c-0.5,0.5-1.1,1-1.7,1.4c-0.6,0.4-1.2,0.8-1.8,1.2
		c-0.1,0.1-0.2,0.1-0.4,0.2c-0.2,0.1-0.3-0.1-0.2-0.2c0.1-0.2,0.2-0.3,0.3-0.5c0.5-0.6,1.1-1.1,1.6-1.6c0.5-0.5,1.1-0.9,1.7-1.3
		c0.4-0.2,0.8,0,0.8,0.4h0C23.1,38.7,22.9,38.8,22.8,38.9z M39.6,35.9c0,0.4-0.1,0.9-0.2,1.4C39.2,37.9,39,38,38.5,38
		c-1.1,0.1-2-0.3-2.9-0.9c-1-0.7-1.8-1.6-2.3-2.7c-0.1-0.1-0.2-0.3,0-0.4s0.3-0.1,0.4,0c1.8,0.3,3.7,0.7,5.5,1.1
		c0.3,0.1,0.4,0.2,0.4,0.4C39.6,35.6,39.6,35.7,39.6,35.9z M43.5,37.9c-0.5-0.1-0.9-0.4-1.1-0.8c-0.2-0.3-0.3-0.5-0.4-0.8
		c-0.1-0.2-0.1-0.3,0-0.5c0.1-0.1,0.3,0,0.5,0c0.8,0.2,1.5,0.4,2.3,0.7c0.6,0.2,1.1,0.5,1.7,0.9C45.5,37.9,44.5,38.1,43.5,37.9z
		 M50.2,34.3c0,0.1,0,0.2-0.1,0.2c-0.3,0.4-0.7,0.8-1.2,1.1c-0.1,0.1-0.2,0.2-0.4,0.2c-0.2,0-0.3,0-0.4-0.2c-0.1-0.2,0-0.3,0.1-0.4
		c0.5-0.4,1-0.8,1.6-1.1C50,34.1,50.2,34,50.2,34.3L50.2,34.3z M63.2,33.6c-0.6,0.4-1.3,0.8-2,1c-0.3,0.1-0.6,0.2-1,0.3
		c-0.2,0.1-0.4,0-0.3-0.2c0-0.6-0.3-1-0.6-1.4c0-0.1-0.1-0.1-0.1-0.2c0,0,0,0,0,0l0,0c0,0,0,0,0,0c1.3-0.3,2.6-0.2,3.9,0
		c0.1,0,0.2,0,0.3,0.2C63.3,33.5,63.3,33.5,63.2,33.6z"/>
</g>
</svg>
