<svg width="320" height="500" viewBox="0 0 320 500" fill="none" xmlns="http://www.w3.org/2000/svg">
<path d="M51.9285 173.162L-46.3657 52.6712C-14.1197 27.0784 33.569 32.8347 60.492 65.8374C87.415 98.8401 83.4762 146.713 51.9285 173.162Z" stroke="#EDFAFA" stroke-width="2"/>
<path d="M87.9422 42.1533L39.423 -17.3225L67.5034 -40.23L116.023 19.2457L87.9422 42.1533Z" stroke="#EDFAFA" stroke-width="2"/>
<path d="M177.232 70.9497L78.9298 -49.5515L116.887 -80.5163L215.19 39.9849L177.232 70.9497Z" stroke="#EDFAFA" stroke-width="2"/>
<path d="M167.343 314.64L69.0488 194.149C101.295 168.556 148.984 174.312 175.907 207.315C202.83 240.318 198.891 288.191 167.343 314.64Z" stroke="#EDFAFA" stroke-width="2"/>
<path d="M58.3033 301.963L9.78407 242.487L18.1111 235.694L66.6303 295.17L58.3033 301.963Z" stroke="#EDFAFA" stroke-width="2"/>
<path d="M78.0569 285.848L29.5377 226.373L47.7415 211.522L96.2607 270.998L78.0569 285.848Z" stroke="#EDFAFA" stroke-width="2"/>
<path d="M58.7032 403.275L-39.5995 282.773L-1.64229 251.809L96.6604 372.31L58.7032 403.275Z" stroke="#EDFAFA" stroke-width="2"/>
<path d="M401.287 123.792L302.993 3.3015C335.239 -22.2914 382.928 -16.5351 409.851 16.4676C436.774 49.4703 432.835 97.3434 401.287 123.792Z" stroke="#EDFAFA" stroke-width="2"/>
<path d="M203.357 183.631L154.838 124.155L182.918 101.248L231.437 160.723L203.357 183.631Z" stroke="#EDFAFA" stroke-width="2"/>
<path d="M292.247 111.116L243.728 51.6398L252.055 44.8468L300.574 104.323L292.247 111.116Z" stroke="#EDFAFA" stroke-width="2"/>
<path d="M312.001 95.001L263.482 35.5253L281.685 20.675L330.205 80.1508L312.001 95.001Z" stroke="#EDFAFA" stroke-width="2"/>
<path d="M292.647 212.427L194.345 91.9261L232.302 60.9613L330.604 181.462L292.647 212.427Z" stroke="#EDFAFA" stroke-width="2"/>
<path d="M48.8138 646.964L-49.4804 526.474C-17.2343 500.881 30.4544 506.637 57.3774 539.64C84.3004 572.642 80.3615 620.516 48.8138 646.964Z" stroke="#EDFAFA" stroke-width="2"/>
<path d="M282.758 456.117L184.463 335.626C216.71 310.033 264.398 315.79 291.321 348.792C318.244 381.795 314.305 429.668 282.758 456.117Z" stroke="#EDFAFA" stroke-width="2"/>
<path d="M84.8278 515.956L36.3086 456.48L64.3891 433.572L112.908 493.048L84.8278 515.956Z" stroke="#EDFAFA" stroke-width="2"/>
<path d="M173.718 443.44L125.199 383.965L133.526 377.172L182.045 436.647L173.718 443.44Z" stroke="#EDFAFA" stroke-width="2"/>
<path d="M193.472 427.326L144.952 367.85L163.156 353L211.675 412.476L193.472 427.326Z" stroke="#EDFAFA" stroke-width="2"/>
<path d="M174.118 544.752L75.8154 424.251L113.773 393.286L212.075 513.787L174.118 544.752Z" stroke="#EDFAFA" stroke-width="2"/>
<path d="M318.772 325.108L270.253 265.633L298.333 242.725L346.852 302.201L318.772 325.108Z" stroke="#EDFAFA" stroke-width="2"/>
<path d="M408.063 353.905L309.76 233.403L347.717 202.439L446.02 322.94L408.063 353.905Z" stroke="#EDFAFA" stroke-width="2"/>
</svg>
