<svg width="149" height="24" viewBox="0 0 149 24" fill="none" xmlns="http://www.w3.org/2000/svg">
<g id="Layer_1" clip-path="url(#clip0_576_166)">
<g id="Group">
<path id="Vector" d="M51.1903 6.71003H46.656V3.22803H59.6963V6.71003H55.162V20.664H51.1903V6.71003Z" fill="#111928"/>
<path id="Vector_2" d="M60.2606 7.35394H63.4882L63.7694 9.65794H63.8727C64.7949 7.86394 66.2049 7.03394 67.4848 7.03394C68.2271 7.03394 68.6633 7.11394 69.023 7.30194L68.2807 10.8099C67.8196 10.7019 67.5384 10.6499 66.974 10.6499C66.027 10.6499 64.8733 11.2919 64.2075 13.0599V20.6659H60.2625V7.35394H60.2606Z" fill="#111928"/>
<path id="Vector_3" d="M69.8668 15.602V7.354H73.8386V15.068C73.8386 16.916 74.2997 17.452 75.3251 17.452C76.2224 17.452 76.76 17.078 77.4507 16.086V7.356H81.4225V20.666H78.1949L77.9137 18.844H77.8104C76.76 20.156 75.5566 20.986 73.8386 20.986C71.0453 20.986 69.8668 18.924 69.8668 15.602Z" fill="#111928"/>
<path id="Vector_4" d="M82.9071 18.976L84.5716 16.646C85.7501 17.61 86.9018 17.932 87.9024 17.932C88.9776 17.932 89.4138 17.53 89.4138 16.888C89.4138 16.084 88.3386 15.736 86.9803 15.2C85.1608 14.504 83.6245 13.298 83.6245 11.236C83.6245 8.71798 85.5722 7.03198 88.5433 7.03198C90.4144 7.03198 92.0024 7.75398 93.1044 8.71998L91.4131 11.05C90.491 10.354 89.542 10.086 88.6715 10.086C87.7494 10.086 87.3132 10.462 87.3132 11.05C87.3132 11.746 88.0306 12.068 89.6453 12.604C91.593 13.246 93.1293 14.452 93.1293 16.648C93.1293 19.086 91.2849 20.986 87.8259 20.986C86.1346 20.986 84.1889 20.29 82.9071 18.978V18.976Z" fill="#111928"/>
<path id="Vector_5" d="M94.7936 15.736V10.594H93.0775V7.48798L95.0251 7.35398L95.4862 3.28198H98.7654V7.35398H101.763V10.594H98.7654V15.682C98.7654 17.182 99.4312 17.744 100.38 17.744C100.79 17.744 101.226 17.69 101.559 17.556L102.173 20.448C101.507 20.716 100.533 20.984 99.2781 20.984C96.1023 20.984 94.7956 18.868 94.7956 15.734L94.7936 15.736Z" fill="#111928"/>
<path id="Vector_6" d="M104.478 3.01392H108.347C113.574 3.01392 116.007 6.46792 116.007 11.7719C116.007 17.0759 113.574 20.6639 108.374 20.6639H104.48V3.01392H104.478ZM108.243 19.6719C112.854 19.6719 114.853 16.4039 114.853 11.7719C114.853 7.13992 112.856 3.97792 108.243 3.97792H105.578V19.6719H108.243Z" fill="#111928"/>
<path id="Vector_7" d="M117.082 14.264C117.082 9.97804 119.644 7.48804 122.59 7.48804C125.537 7.48804 128.098 9.97804 128.098 14.264C128.098 18.55 125.537 20.986 122.59 20.986C119.644 20.986 117.082 18.522 117.082 14.264ZM126.996 14.264C126.996 10.836 125.1 8.48004 122.59 8.48004C120.08 8.48004 118.184 10.836 118.184 14.264C118.184 17.692 120.08 19.996 122.59 19.996C125.1 19.996 126.996 17.692 126.996 14.264Z" fill="#111928"/>
<path id="Vector_8" d="M129.097 14.264C129.097 9.97804 131.711 7.48804 134.682 7.48804C136.373 7.48804 137.448 8.23804 138.294 9.09604L137.705 9.79204C136.962 9.01604 135.988 8.48004 134.707 8.48004C132.17 8.48004 130.197 10.836 130.197 14.264C130.197 17.692 131.99 19.996 134.707 19.996C136.038 19.996 137.192 19.38 138.037 18.576L138.575 19.272C137.55 20.316 136.218 20.986 134.655 20.986C131.504 20.986 129.095 18.522 129.095 14.264H129.097Z" fill="#111928"/>
<path id="Vector_9" d="M139.447 19.1899L140.012 18.4939C141.037 19.4039 142.139 20.0199 143.984 20.0199C145.956 20.0199 146.982 18.8139 146.982 17.4479C146.982 15.8139 145.394 15.0919 143.959 14.5559C142.063 13.8599 140.115 13.0819 140.115 10.8859C140.115 9.06389 141.498 7.48389 144.06 7.48389C145.443 7.48389 146.647 8.04589 147.544 8.82389L146.955 9.51989C146.136 8.87789 145.263 8.44789 144.008 8.44789C142.061 8.44789 141.19 9.62589 141.19 10.8319C141.19 12.3039 142.522 12.8679 144.008 13.4559C145.956 14.2319 148.057 14.8759 148.057 17.3659C148.057 19.2939 146.57 20.9819 143.932 20.9819C142.011 20.9819 140.5 20.2859 139.449 19.1879L139.447 19.1899Z" fill="#111928"/>
</g>
<g id="Group_2">
<path id="Vector_10" d="M29.4373 0C35.7718 0 40.9164 5.378 40.9164 12H29.4373V0Z" fill="#16BDCA"/>
<path id="Vector_11" d="M40.9164 12C40.9164 18.622 35.7718 24 29.4373 24V12H40.9164Z" fill="#16BDCA"/>
<path id="Vector_12" d="M6.47906 0H0.739502V12H6.47906V0Z" fill="#014451"/>
<path id="Vector_13" d="M19.8713 0H17.9581V12H19.8713V0Z" fill="#014451"/>
<path id="Vector_14" d="M25.6109 0H21.7845V12H25.6109V0Z" fill="#014451"/>
<path id="Vector_15" d="M16.045 0H8.39221V24H16.045V0Z" fill="#014451"/>
</g>
</g>
<defs>
<clipPath id="clip0_576_166">
<rect width="147.315" height="24" fill="white" transform="translate(0.739502)"/>
</clipPath>
</defs>
</svg>
