<?xml version="1.0" standalone="no"?>
<!DOCTYPE svg PUBLIC "-//W3C//DTD SVG 20010904//EN"
 "http://www.w3.org/TR/2001/REC-SVG-20010904/DTD/svg10.dtd">
<svg version="1.0" xmlns="http://www.w3.org/2000/svg"
 width="250.000000pt" height="608.000000pt" viewBox="0 0 250.000000 608.000000"
 preserveAspectRatio="xMidYMid meet">
<g transform="translate(0.000000,608.000000) scale(0.100000,-0.100000)"
fill="#000000" stroke="none">
<path d="M978 6025 c-59 -33 -97 -136 -142 -385 -53 -294 -71 -536 -82 -1145
-7 -361 2 -608 36 -925 l18 -175 -34 -135 c-19 -74 -61 -220 -94 -325 -32
-104 -75 -246 -94 -315 -20 -69 -50 -161 -67 -205 -62 -159 -99 -279 -89 -289
5 -5 11 -8 13 -5 2 2 18 23 36 46 29 38 35 73 10 58 -14 -9 -13 -7 41 133 27
72 70 200 94 284 24 84 71 241 104 348 33 107 65 219 72 248 7 29 14 51 16 49
4 -4 82 -659 86 -717 1 -30 -26 -79 -193 -340 -107 -168 -213 -334 -234 -370
-21 -36 -87 -142 -147 -237 -59 -95 -132 -222 -163 -282 -30 -61 -71 -135 -90
-165 -52 -82 -45 -136 18 -136 34 0 33 23 -1 28 -33 5 -28 37 17 106 22 34 57
97 77 141 41 87 41 86 269 455 309 500 449 713 457 693 3 -10 14 -88 23 -173
30 -286 95 -783 130 -1010 31 -192 55 -355 135 -890 35 -234 43 -279 60 -317
11 -24 24 -43 29 -43 15 0 14 5 -9 78 -11 35 -27 116 -35 180 -8 64 -26 189
-40 277 -13 88 -36 237 -50 330 -14 94 -41 269 -60 390 -34 212 -91 652 -136
1052 l-22 193 33 52 c159 253 312 512 402 683 32 61 58 106 58 100 0 -5 -4
-37 -10 -70 -27 -168 -52 -427 -47 -491 9 -121 52 -184 107 -154 68 36 189
447 235 795 8 64 15 137 15 162 0 26 2 44 5 42 2 -3 16 -44 30 -92 37 -129 91
-257 123 -290 54 -57 136 -83 172 -54 27 21 56 70 83 137 22 57 101 406 109
485 3 29 4 29 30 -21 48 -91 106 -144 158 -144 32 0 23 27 -11 34 -40 8 -81
52 -128 136 -26 45 -44 66 -59 68 -20 3 -22 -1 -22 -51 0 -75 -72 -408 -110
-505 -38 -99 -65 -127 -115 -118 -61 12 -107 67 -152 186 -72 187 -86 261 -91
478 -3 155 -7 192 -18 192 -18 0 -18 0 12 98 31 104 30 126 -12 130 -49 5 -88
-35 -123 -126 -27 -71 -91 -345 -141 -607 -18 -97 -29 -126 -92 -245 -138
-263 -433 -759 -444 -747 -2 1 -24 180 -50 397 l-46 395 21 114 c122 633 177
1072 246 1961 8 107 19 245 24 305 15 192 -8 268 -85 272 -21 2 -51 -4 -66
-12z m101 -29 c21 -25 29 -116 20 -225 -67 -871 -83 -1044 -120 -1341 -23
-189 -135 -875 -147 -904 -5 -13 -13 29 -20 115 -28 321 -34 502 -28 844 11
647 31 899 96 1224 33 165 56 230 97 274 30 30 82 37 102 13z m658 -1723 c-2
-10 -19 -70 -36 -133 -18 -63 -47 -161 -66 -217 -38 -111 -124 -315 -125 -296
0 7 20 108 45 225 72 338 111 436 174 438 8 0 11 -7 8 -17z m-21 -395 c-15
-415 -58 -684 -156 -993 -33 -102 -84 -215 -98 -215 -31 1 -53 48 -59 133 -10
134 62 648 101 725 46 91 135 312 172 426 20 64 39 116 42 116 3 0 2 -87 -2
-192z"/>
</g>
</svg>
